<!-- Generated by IcoMoon.io -->
<svg version="1.1" xmlns="http://www.w3.org/2000/svg" width="32" height="32" viewBox="0 0 32 32">
<title>menu_unfold</title>
<path d="M6 23.493c0 0.457 0.37 0.827 0.827 0.827v0h18.333c0.46 0 0.833-0.373 0.833-0.833s-0.373-0.833-0.833-0.833v0h-18.333c-0 0-0 0-0 0-0.457 0-0.827 0.37-0.827 0.827 0 0.005 0 0.009 0 0.014v-0.001zM6 16c0.008 0.458 0.381 0.827 0.84 0.827 0 0 0 0 0 0h12c0.46 0 0.833-0.373 0.833-0.833s-0.373-0.833-0.833-0.833v0h-12c-0.464 0-0.84 0.376-0.84 0.84v0zM6 8.507c0 0.457 0.37 0.827 0.827 0.827v0h18.333c0.46 0 0.833-0.373 0.833-0.833s-0.373-0.833-0.833-0.833v0h-18.333c-0 0-0 0-0 0-0.457 0-0.827 0.37-0.827 0.827 0 0.005 0 0.009 0 0.014v-0.001zM20.853 18.667c-0.146 0.147-0.236 0.35-0.236 0.573s0.090 0.426 0.236 0.573l-0-0c0.141 0.148 0.34 0.24 0.56 0.24s0.419-0.092 0.56-0.24l0-0 3.72-3.187c0.151-0.15 0.244-0.357 0.244-0.587s-0.093-0.437-0.244-0.587l-0-0-3.653-3.227c-0.137-0.1-0.308-0.16-0.494-0.16-0.464 0-0.84 0.376-0.84 0.84 0 0.186 0.060 0.357 0.162 0.496l-0.002-0.002 3.133 2.6z"></path>
</svg>
