<!-- Generated by IcoMoon.io -->
<svg version="1.1" xmlns="http://www.w3.org/2000/svg" width="32" height="32" viewBox="0 0 32 32">
<title>satellite</title>
<path d="M23.507 15.573l-5.84-2.893 1.333-2.787c0.001-0.018 0.002-0.039 0.002-0.060s-0.001-0.042-0.002-0.063l0 0.003c0.253-0.002 0.496-0.046 0.722-0.125l-0.016 0.005c0.858-0.318 1.458-1.129 1.458-2.081 0-0.263-0.046-0.515-0.13-0.748l0.005 0.015c-0.323-0.856-1.136-1.455-2.089-1.455-0.26 0-0.509 0.044-0.74 0.126l0.016-0.005c-0.884 0.304-1.508 1.128-1.508 2.098 0 0.531 0.187 1.018 0.498 1.399l-0.003-0.004c-0.028 0.032-0.054 0.066-0.078 0.103l-0.002 0.004-1.133 2.72-5.88-2.893c-0.136-0.079-0.299-0.126-0.472-0.126-0.38 0-0.708 0.224-0.858 0.547l-0.002 0.006c-0.566 1.098-0.898 2.396-0.898 3.772 0 3.863 2.616 7.115 6.172 8.081l0.059 0.014v3.533h-4c-0.527 0-0.953 0.427-0.953 0.953s0.427 0.953 0.953 0.953h9.933c0.526 0 0.953-0.427 0.953-0.953s-0.427-0.953-0.953-0.953h-4v-3.24h0.293c0.955-0.003 1.872-0.164 2.726-0.458l-0.059 0.018c2.195-0.697 3.958-2.213 4.965-4.179l0.022-0.047c0.058-0.119 0.091-0.258 0.091-0.405 0-0.392-0.238-0.729-0.578-0.872l-0.006-0.002zM18.467 19.28c-0.619 0.215-1.333 0.339-2.076 0.339-3.601 0-6.52-2.919-6.52-6.52 0-0.717 0.116-1.407 0.329-2.052l-0.013 0.046 11.56 5.733c-0.795 1.136-1.92 1.994-3.234 2.44l-0.046 0.013z"></path>
</svg>
