<!-- Generated by IcoMoon.io -->
<svg version="1.1" xmlns="http://www.w3.org/2000/svg" width="32" height="32" viewBox="0 0 32 32">
<title>traffic</title>
<path d="M26.44 17.333c-0.111-1.196-0.86-2.194-1.899-2.659l-0.020-0.008-0.973-4.533c-0.437-1.706-1.93-2.958-3.726-3.026l-0.007-0h-7.627c-1.803 0.068-3.296 1.321-3.727 2.999l-0.006 0.028-0.973 4.533c-1.060 0.472-1.809 1.47-1.919 2.654l-0.001 0.013-0.227 2.96c-0.006 0.067-0.009 0.145-0.009 0.224 0 1.175 0.717 2.182 1.737 2.609l0.019 0.007c0.267 1.009 1.171 1.74 2.246 1.74 0.997 0 1.847-0.629 2.175-1.511l0.005-0.016h8.987c0.334 0.898 1.183 1.527 2.18 1.527 1.075 0 1.98-0.732 2.243-1.724l0.004-0.016c1.039-0.434 1.756-1.441 1.756-2.616 0-0.079-0.003-0.157-0.010-0.234l0.001 0.010zM24.187 22c-0.281 0.066-0.49 0.306-0.507 0.598l-0 0.002c0 0.56-0.454 1.013-1.013 1.013s-1.013-0.454-1.013-1.013v0c-0.028-0.337-0.309-0.6-0.651-0.6-0.001 0-0.002 0-0.002 0h-10.013c-0.001 0-0.001 0-0.002 0-0.342 0-0.623 0.263-0.651 0.598l-0 0.002c0 0.56-0.454 1.013-1.013 1.013s-1.013-0.454-1.013-1.013v0c-0.017-0.294-0.226-0.534-0.502-0.599l-0.004-0.001c-0.661-0.169-1.141-0.759-1.141-1.462 0-0.053 0.003-0.106 0.008-0.158l-0.001 0.006 0.213-2.92c0.075-0.786 0.604-1.432 1.32-1.676l0.014-0.004c0.249-0.074 0.433-0.285 0.466-0.543l0-0.003v-0.107l1-4.667c0.285-1.152 1.291-2 2.502-2.040l0.004-0h7.64c1.18 0.057 2.154 0.873 2.449 1.968l0.004 0.019 0.987 4.667v0.107c0.034 0.262 0.218 0.473 0.462 0.546l0.005 0.001c0.729 0.248 1.259 0.894 1.333 1.672l0.001 0.008 0.267 2.973c0.005 0.045 0.007 0.096 0.007 0.149 0 0.707-0.487 1.3-1.144 1.463l-0.010 0.002zM10.987 15.373h10.027c0.009 0 0.020 0.001 0.030 0.001 0.215 0 0.408-0.093 0.543-0.24l0.001-0.001c0.107-0.128 0.172-0.295 0.172-0.477 0-0.048-0.005-0.095-0.013-0.141l0.001 0.005-0.787-3.44c-0.143-0.547-0.612-0.953-1.182-1l-0.005-0h-7.547c-0.575 0.047-1.044 0.453-1.185 0.991l-0.002 0.009-0.787 3.44c-0.012 0.049-0.019 0.104-0.019 0.161 0 0.39 0.316 0.707 0.707 0.707 0.016 0 0.032-0.001 0.047-0.002l-0.002 0zM12.32 11.373h7.373l0.627 2.667h-8.627zM10.24 17.52c-0.817 0-1.48 0.663-1.48 1.48s0.663 1.48 1.48 1.48c0.817 0 1.48-0.663 1.48-1.48v0c-0.007-0.814-0.666-1.473-1.479-1.48h-0.001zM21.84 17.52c-0.817 0-1.48 0.663-1.48 1.48s0.663 1.48 1.48 1.48c0.817 0 1.48-0.663 1.48-1.48v0c-0.007-0.814-0.666-1.473-1.479-1.48h-0.001z"></path>
</svg>
