<!-- Generated by IcoMoon.io -->
<svg version="1.1" xmlns="http://www.w3.org/2000/svg" width="32" height="32" viewBox="0 0 32 32">
<title>landform</title>
<path d="M25.747 24h-19.493c-0 0-0.001 0-0.001 0-0.314 0-0.591-0.157-0.757-0.397l-0.002-0.003c-0.096-0.137-0.153-0.308-0.153-0.492 0-0.126 0.027-0.246 0.075-0.354l-0.002 0.006 4.453-10.28c0.142-0.266 0.407-0.451 0.716-0.48l0.004-0c0.036-0.005 0.077-0.008 0.119-0.008 0.29 0 0.549 0.132 0.72 0.339l0.001 0.002 3.2 4 4-7.813c0.165-0.304 0.477-0.509 0.838-0.52l0.002-0c0.359 0.009 0.667 0.222 0.811 0.528l0.002 0.006 6.307 14.227c0.046 0.103 0.073 0.222 0.073 0.348 0 0.184-0.057 0.354-0.155 0.495l0.002-0.003c-0.168 0.243-0.445 0.4-0.759 0.4-0 0-0.001 0-0.001 0h0zM7.627 22.227h16.733l-4.973-11.227-3.773 7.36c-0.161 0.295-0.469 0.492-0.822 0.492-0.292 0-0.552-0.134-0.723-0.343l-0.001-0.002-3.133-4z"></path>
</svg>
