<!-- Generated by IcoMoon.io -->
<svg version="1.1" xmlns="http://www.w3.org/2000/svg" width="32" height="32" viewBox="0 0 32 32">
<title>map</title>
<path d="M16.133 5.333c-0.077-0.004-0.168-0.006-0.259-0.006-3.156 0-5.731 2.486-5.874 5.606l-0 0.013q0 0.253 0 0.52c0 3.467 0.933 6.933 4.8 10.933l1.333 1.333 1.333-1.333c4-4 4.8-7.2 4.8-10.933 0.004-0.077 0.006-0.168 0.006-0.259 0-3.156-2.486-5.731-5.606-5.874l-0.013-0zM16.4 21.333l-0.267 0.267c-0.133-0.133-0.133-0.267-0.267-0.267-1.499-1.444-2.714-3.171-3.56-5.097l-0.040-0.103c-0.507-1.346-0.801-2.901-0.801-4.525 0-0.050 0-0.099 0.001-0.149l-0 0.008c-0.005-0.073-0.007-0.159-0.007-0.246 0-1.217 0.515-2.314 1.338-3.086l0.002-0.002c0.822-0.747 1.92-1.205 3.124-1.205 0.074 0 0.147 0.002 0.219 0.005l-0.010-0c0.062-0.003 0.136-0.005 0.209-0.005 1.204 0 2.302 0.457 3.128 1.208l-0.004-0.003c0.747 0.822 1.205 1.92 1.205 3.124 0 0.074-0.002 0.147-0.005 0.219l0-0.010c0 3.467-0.667 6.267-4.267 9.867zM16 8.267c-0.016-0-0.035-0-0.054-0-1.646 0-2.983 1.319-3.013 2.958l-0 0.003s0 0.067 0 0.107c0 1.694 1.373 3.067 3.067 3.067s3.067-1.373 3.067-3.067v0c0-0.016 0-0.035 0-0.054 0-1.646-1.319-2.983-2.958-3.013l-0.003-0zM16 12.933c-0.807-0.007-1.459-0.66-1.467-1.466v-0.001c0-0.002 0-0.004 0-0.006 0-0.837 0.642-1.523 1.461-1.594l0.006-0c0.807 0.007 1.459 0.66 1.467 1.466v0.001c0 0.002 0 0.004 0 0.006 0 0.837-0.642 1.523-1.461 1.594l-0.006 0zM26.667 25.733v0l-1.6-6.133c-0.020-0.286-0.247-0.513-0.532-0.533l-0.002-0h-3.333c-0.286 0.020-0.513 0.247-0.533 0.532l-0 0.002v0.4c0.020 0.286 0.247 0.513 0.532 0.533l0.002 0h2.4l1.2 4.533h-17.6l1.2-4.533h2.4c0.286-0.020 0.513-0.247 0.533-0.532l0-0.002v-0.267c-0.020-0.286-0.247-0.513-0.532-0.533l-0.002-0h-3.333c-0.286 0.020-0.513 0.247-0.533 0.532l-0 0.002-1.6 5.867v0.4c-0.002 0.017-0.003 0.038-0.003 0.058 0 0.311 0.232 0.569 0.533 0.608l0.003 0h20.133c0.286-0.020 0.513-0.247 0.533-0.532l0-0.002z"></path>
</svg>
